HIERARCHY
ROOT Hips
{
	OFFSET -0.179506 -22.333345 2.821913
	CHANNELS 6 Xposition Yposition Zposition Zrotation Yrotation Xrotation 
	JOINT LeftUpLeg
	{
		OFFSET 6.951974 -9.140623 -0.681533
		CHANNELS 3 Zrotation Yrotation Xrotation
		JOINT LeftLeg
		{
			OFFSET 3.427654 -37.519855 -0.449580
			CHANNELS 3 Zrotation Yrotation Xrotation
			JOINT LeftFoot
			{
				OFFSET -1.359570 -39.796059 -4.369333
				CHANNELS 3 Zrotation Yrotation Xrotation
				JOINT LeftToe
				{
					OFFSET 2.635814 -5.579078 11.928840
					CHANNELS 3 Zrotation Yrotation Xrotation
					End Site
					{
						OFFSET 0.000000 0.000000 0.000000
					}
				}
			}
		}
	}
	JOINT RightUpLeg
	{
		OFFSET -6.767048 -9.052170 -0.431982
		CHANNELS 3 Zrotation Yrotation Xrotation
		JOINT RightLeg
		{
			OFFSET -3.829005 -38.256897 -0.885003
			CHANNELS 3 Zrotation Yrotation Xrotation
			JOINT RightFoot
			{
				OFFSET 1.577377 -39.841461 -4.231180
				CHANNELS 3 Zrotation Yrotation Xrotation
				JOINT RightToe
				{
					OFFSET -2.537174 -4.814398 12.334795
					CHANNELS 3 Zrotation Yrotation Xrotation
					End Site
					{
						OFFSET 0.000000 0.000000 0.000000
					}
				}
			}
		}
	}
	JOINT Spine
	{
		OFFSET -0.253288 10.896323 -2.669631
		CHANNELS 3 Zrotation Yrotation Xrotation
		JOINT Spine1
		{
			OFFSET 0.548704 13.518043 0.109247
			CHANNELS 3 Zrotation Yrotation Xrotation
			JOINT Spine2
			{
				OFFSET 0.145701 5.292222 2.542457
				CHANNELS 3 Zrotation Yrotation Xrotation
				JOINT Neck
				{
					OFFSET -0.277840 21.387037 -4.285703
					CHANNELS 3 Zrotation Yrotation Xrotation
					JOINT Head
					{
						OFFSET 0.515184 6.496960 5.134897
						CHANNELS 3 Zrotation Yrotation Xrotation
						End Site
						{
							OFFSET 0.000000 0.000000 0.000000
						}
					}
				}
				JOINT LeftShoulder
				{
					OFFSET 7.884473 12.174932 -3.408961
					CHANNELS 3 Zrotation Yrotation Xrotation
					JOINT LeftArm
					{
						OFFSET 9.097692 3.046888 -0.886815
						CHANNELS 3 Zrotation Yrotation Xrotation
						JOINT LeftForeArm
						{
							OFFSET 25.961220 -1.277207 -2.745643
							CHANNELS 3 Zrotation Yrotation Xrotation
							JOINT LeftHand
							{
								OFFSET 24.923361 0.898606 -0.117091
								CHANNELS 3 Zrotation Yrotation Xrotation
								End Site
								{
									OFFSET 0.000000 0.000000 0.000000
								}
							}
						}
					}
				}
				JOINT RightShoulder
				{
					OFFSET -8.175920 11.883285 -3.861528
					CHANNELS 3 Zrotation Yrotation Xrotation
					JOINT RightArm
					{
						OFFSET -9.601238 3.255117 -0.914307
						CHANNELS 3 Zrotation Yrotation Xrotation
						JOINT RightForeArm
						{
							OFFSET -25.374195 -1.332924 -2.140099
							CHANNELS 3 Zrotation Yrotation Xrotation
							JOINT RightHand
							{
								OFFSET -25.529810 0.777228 -0.555919
								CHANNELS 3 Zrotation Yrotation Xrotation
								End Site
								{
									OFFSET 0.000000 0.000000 0.000000
								}
							}
						}
					}
				}
			}
		}
	}
}
MOTION
Frames: 6
Frame Time: 0.033333
2.773385 -50.740650 14.200913 -174.442201 -2.941467 2.306435 0.406838 7.017651 1.208738 -4.868362 9.676447 -5.339463 -2.442410 10.072019 12.545876 nan nan nan -3.611691 -7.813581 -0.554430 4.481111 -4.162085 -4.157161 13.103062 -5.059521 17.705369 nan nan nan 0.145319 2.315262 -6.878297 -0.813518 -1.015738 6.384434 -2.968175 0.962610 -0.085894 -1.423727 4.105128 -1.223340 -0.132710 -1.499729 -5.309375 -12.588228 3.771019 3.951889 -57.849263 5.257928 12.797262 6.914807 -19.088513 12.364444 -18.096114 -9.544566 13.966236 12.312519 0.733434 5.656031 57.115371 -1.201191 11.640758 1.742653 13.360123 17.206187 15.831481 6.047594 10.131503 
2.772280 -50.750381 14.199026 -174.446440 -2.945477 2.282977 0.412915 7.013203 1.243377 -4.886471 9.707644 -5.360062 -2.428685 10.040978 12.552800 nan nan nan -3.627087 -7.796025 -0.531566 4.509505 -4.182462 -4.162283 13.011886 -5.004601 17.729651 nan nan nan 0.137524 2.307797 -6.869794 -0.792697 -1.020775 6.519095 -2.962666 0.947675 -0.232567 -1.393017 4.201870 -1.094666 -0.165670 -1.514357 -5.436697 -12.609511 3.822143 3.930797 -57.870157 5.254218 12.831972 6.959709 -19.041582 12.246786 -18.253288 -9.498489 14.183414 12.302358 0.729512 5.752293 57.096318 -1.115782 11.666510 1.727713 13.359662 17.204862 15.885328 6.071031 10.078499 
2.770244 -50.749947 14.191143 -174.444155 -2.942971 2.268011 0.415374 6.999114 1.264990 -4.914408 9.750773 -5.376395 -2.401882 10.018223 12.552656 nan nan nan -3.645363 -7.770689 -0.510997 4.543525 -4.199344 -4.183271 12.918534 -4.964469 17.741176 nan nan nan 0.124465 2.297501 -6.863838 -0.774304 -1.034821 6.652694 -2.962604 0.925772 -0.378065 -1.359649 4.282024 -0.983890 -0.207031 -1.525530 -5.537995 -12.624509 3.875335 3.923979 -57.892463 5.266142 12.891804 6.957754 -19.020224 12.219435 -18.496234 -9.433009 14.403697 12.287890 0.715630 5.843105 57.088085 -1.029922 11.708109 1.695102 13.357211 17.215844 15.998809 6.058763 10.014868 
2.757457 -50.747108 14.182162 -174.431024 -2.898847 2.148684 0.430211 6.975510 1.422542 -4.980998 9.922347 -5.423766 -2.425660 9.839977 12.567753 nan nan nan -3.711956 -7.806103 -0.325620 4.610246 -4.256164 -4.262953 12.972299 -4.943525 17.662482 nan nan nan 0.103693 2.305783 -6.756728 -0.702426 -1.041436 6.999369 -2.964725 0.811363 -0.789609 -1.383957 4.457570 -0.866460 -0.219120 -1.507031 -5.461464 -12.561475 3.837091 4.032856 -58.089644 5.488148 13.343291 8.068501 -18.022843 13.253225 -18.884968 -9.910047 14.172457 12.176585 0.605023 6.009913 57.260108 -0.872716 11.983437 1.389330 13.362241 17.772448 16.028035 6.329630 9.078534 
2.736759 -50.747322 14.173566 -174.446845 -2.903151 2.108246 0.451164 6.973860 1.456679 -4.977272 9.903438 -5.390727 -2.498653 9.819052 12.542171 nan nan nan -3.712160 -7.840838 -0.305910 4.614804 -4.293212 -4.216196 12.979381 -4.972159 17.625039 nan nan nan 0.144459 2.288065 -6.679117 -0.697270 -1.040979 6.975915 -2.975083 0.814781 -0.779234 -1.402860 4.518343 -0.906338 -0.211276 -1.453722 -5.436091 -12.573137 3.896852 4.008646 -58.108099 5.454497 13.398133 8.218297 -18.061263 13.262476 -18.928205 -9.944957 13.976229 12.197893 0.532915 6.049843 57.212888 -0.803278 11.984037 1.348874 13.470523 17.909079 16.080815 6.291739 8.997934 
2.783191 -50.860035 13.750526 -174.256685 -2.176175 1.419354 0.361925 5.797960 1.529163 -4.895567 10.049706 -4.764847 -2.604887 10.192845 12.587497 nan nan nan -3.823791 -7.908721 0.161420 4.485667 -4.345520 -4.087614 13.048815 -5.632784 17.397036 nan nan nan -0.050065 2.472888 -4.327911 -0.882705 -1.511413 5.520415 -2.909126 0.450883 -0.561609 -1.403508 4.479061 -1.689951 -0.015816 -1.582755 -5.141788 -12.514599 3.975901 3.804330 -58.031866 4.931175 13.579230 8.511426 -17.777063 12.829626 -18.449891 -10.493129 14.589121 12.460929 0.243411 5.428559 57.184505 -0.699238 12.335577 1.218336 13.266487 17.895913 16.013187 6.590280 8.949103 
